<svg xmlns="http://www.w3.org/2000/svg" width="1920" height="133">
    <path fill-rule="evenodd" fill="#363636" d="M0 76.367v56.632h1919.999V69.503h-64.133s-9.467-21.783-27.057-12.871c0 0-18.191-13.746-31.064 0l-8.017 8.58h-12.025s5.418-32.769 26.054-36.896V15.445s-23.911 3.317-35.073 27.005c0 0 7.855-28.205 16.034-35.586L1771.69 0s-15.503 19.311-15.031 44.619c0 0-6.539-20.442-34.071-18.02l-2.004 12.871s15.171-8.943 31.065 25.742L276.576 73.793s-9.24-22.876-38.08-8.581c0 0-13.182-20.308-41.085-.858 0 0 10.272-12.522 20.041-18.019 0 0-25.737 3.638-28.058 12.013 0 0 10.167-25.375 19.04-28.028 0 0-12.808-3.515-27.057 16.015 0 0 6.99-25.658-4.008-35.181 0 0-.636 8.256-9.019 31.749 0 0-7.227-21.072-24.05-22.31 0 0 16.562 19.62 7.015 36.039 0 0-7.154-19.381-38.08-19.736 0 0 35.138 17.256 22.046 24.026 0 0-14.958-4.609-22.046-4.29 0 0 24.538 15.965 27.764 18.877L0 76.367z"/>
</svg>
